<svg width="139" height="20" viewBox="0 0 139 20" fill="none" xmlns="http://www.w3.org/2000/svg"><g clip-path="url(#clip0_7909_15580)"><path fill-rule="evenodd" clip-rule="evenodd" d="M128.896 11.1671L131.081 5.14473H131.612L133.799 11.1671H128.896ZM132.682 1.71289H130.018L123.95 18.3628H126.286L128.115 13.3211H134.582L136.413 18.3628H138.75L132.682 1.71289Z" fill="#000000"></path><path fill-rule="evenodd" clip-rule="evenodd" d="M109.041 10.023V3.90784H113.931C115.296 3.90784 117.587 4.30638 117.587 6.97607C117.587 9.49431 115.599 10.023 113.931 10.023H109.041ZM119.787 6.97603C119.787 4.3563 117.976 1.71265 113.93 1.71265H106.837V18.3626H109.04V12.2384H113.278L116.998 18.3626H119.654L115.775 12.0115C116.82 11.7644 119.787 10.7313 119.787 6.97603V6.97603Z" fill="#000000"></path><path fill-rule="evenodd" clip-rule="evenodd" d="M98.1537 11.7324C98.1537 11.9136 98.105 16.1742 93.8868 16.1742C89.961 16.1742 89.6284 12.773 89.6205 11.7324V1.24976H87.4118V11.7324C87.4118 14.7905 89.1079 18.3622 93.8868 18.3622C98.6657 18.3622 100.362 14.7905 100.362 11.7324V1.24976H98.1537V11.7324Z" fill="#000000"></path><path fill-rule="evenodd" clip-rule="evenodd" d="M69.837 1.71289V18.3628H72.0408V10.4805H81.585V8.29072H72.0408V3.92923H82.787V1.71289H69.837Z" fill="#000000"></path><path fill-rule="evenodd" clip-rule="evenodd" d="M60.6035 1.71289V14.945H60.1023L51.9965 1.71289H49.0249V18.3628H51.3213V5.5495H51.8225L59.5609 18.3628H62.8999V1.71289H60.6035Z" fill="#000000"></path><path fill-rule="evenodd" clip-rule="evenodd" d="M30.9879 1.71289V3.7683H35.8958V16.308H30.9879V18.3628H43.0128V16.308H38.1054V3.7683H43.0128V1.71289H30.9879Z" fill="#000000"></path><path fill-rule="evenodd" clip-rule="evenodd" d="M0.579857 1.71289V4.24601L6.71224 3.62323H8.97567V7.72394L5.16434 8.87439L0 10.104L0.766682 12.5808L5.71566 10.7045L8.97567 9.72089V16.453H6.71224L0.579857 15.8292V18.3628H19.3076V15.8292L13.1752 16.453H10.9112V9.72089L14.1551 10.6992L19.1208 12.5808L19.8874 10.104L14.7366 8.87811L10.9112 7.72394V3.62323H13.1752L19.3076 4.24601V1.71289H0.579857Z" fill="#000000"></path></g><defs><clipPath id="clip0_7909_15580"><rect width="138.75" height="19.9999" fill="#000000"></rect></clipPath></defs></svg>