<?xml version="1.0" standalone="no"?>
<!DOCTYPE svg PUBLIC "-//W3C//DTD SVG 20010904//EN"
 "http://www.w3.org/TR/2001/REC-SVG-20010904/DTD/svg10.dtd">
<svg version="1.0" xmlns="http://www.w3.org/2000/svg"
 width="800.000000pt" height="216.000000pt" viewBox="0 0 800.000000 216.000000"
 preserveAspectRatio="xMidYMid meet">
<metadata>
Created by potrace 1.16, written by Peter Selinger 2001-2019
</metadata>
<g transform="translate(0.000000,216.000000) scale(0.100000,-0.100000)"
fill="#000000" stroke="none">
<path d="M995 2090 c-329 -35 -638 -273 -768 -590 -62 -151 -72 -207 -71 -385
1 -195 17 -268 99 -430 139 -276 379 -457 695 -521 64 -13 115 -15 219 -11
160 6 265 32 401 101 l85 43 208 -70 c115 -38 211 -66 215 -63 3 4 -112 125
-256 269 l-261 261 -28 -22 c-148 -119 -308 -169 -481 -151 -193 21 -369 141
-460 316 -51 99 -72 182 -72 293 0 100 18 178 63 270 41 84 167 212 254 258
127 67 295 89 432 57 208 -49 391 -234 446 -450 24 -93 19 -233 -10 -322 -3
-8 -56 6 -170 44 -91 30 -169 52 -173 49 -3 -4 112 -125 256 -269 l263 -262
20 25 c11 14 40 58 64 99 171 287 179 669 19 960 -134 244 -371 423 -644 485
-84 19 -244 27 -345 16z"/>
<path d="M4125 1538 c-51 -29 -60 -89 -20 -132 32 -35 82 -35 119 -1 71 65
-15 181 -99 133z"/>
<path d="M4850 1135 l0 -415 65 0 65 0 0 130 0 130 33 0 c31 0 38 -7 122 -130
l89 -130 73 0 c57 0 72 3 67 13 -16 26 -159 234 -187 270 l-30 38 36 37 c19
20 67 75 106 122 l70 85 -65 3 c-35 2 -72 -1 -81 -6 -9 -5 -50 -51 -92 -102
-83 -102 -100 -116 -125 -107 -14 6 -16 33 -16 242 l0 235 -65 0 -65 0 0 -415z"/>
<path d="M7190 1400 l0 -151 -43 26 c-50 29 -136 34 -191 11 -46 -19 -104 -72
-126 -116 -59 -116 -40 -314 39 -404 65 -73 192 -74 289 0 18 14 34 24 36 23
1 -2 6 -17 12 -34 9 -28 13 -30 67 -33 l57 -3 0 416 0 415 -70 0 -70 0 0 -150z
m-32 -227 c27 -20 27 -22 30 -156 l3 -136 -42 -31 c-33 -23 -53 -30 -89 -30
-88 0 -122 52 -122 184 1 136 49 201 145 193 27 -2 60 -13 75 -24z"/>
<path d="M2912 1529 c-213 -42 -352 -255 -314 -481 38 -218 214 -350 449 -335
l84 5 77 -79 78 -79 83 0 83 0 -40 48 c-22 26 -52 58 -67 72 -15 14 -40 42
-57 63 l-30 37 46 51 c117 130 146 324 72 484 -73 159 -274 252 -464 214z
m213 -141 c82 -43 126 -123 133 -240 11 -190 -69 -295 -232 -306 -39 -2 -89 1
-111 7 -119 32 -190 179 -164 341 17 106 66 171 157 206 48 18 176 13 217 -8z"/>
<path d="M5430 1125 l0 -405 65 0 65 0 2 281 3 281 199 -254 c260 -330 238
-308 303 -308 l53 0 0 405 0 405 -65 0 -65 0 -2 -282 -3 -281 -220 279 -220
279 -58 3 -57 3 0 -406z"/>
<path d="M4488 1286 c-55 -20 -85 -42 -118 -88 -83 -115 -77 -302 13 -404 84
-96 250 -111 363 -33 50 34 53 47 21 77 -29 28 -36 28 -94 -4 -128 -69 -235
31 -220 203 8 83 29 120 80 144 54 24 91 24 144 -2 52 -25 69 -23 93 16 l19
30 -34 24 c-73 50 -187 66 -267 37z"/>
<path d="M6390 1291 c-68 -21 -132 -75 -164 -138 -22 -44 -34 -142 -25 -206
13 -96 59 -161 149 -208 63 -33 205 -34 265 -2 47 25 96 75 118 119 38 76 40
209 4 294 -22 51 -85 108 -145 130 -54 21 -153 26 -202 11z m177 -122 c39 -36
53 -80 53 -166 0 -88 -17 -134 -62 -167 -38 -27 -118 -27 -156 0 -46 35 -57
69 -57 176 0 82 3 101 21 125 48 65 147 81 201 32z"/>
<path d="M7560 1280 c-119 -56 -176 -170 -159 -322 12 -112 95 -210 202 -239
92 -25 230 5 295 64 l22 21 -27 28 c-32 34 -51 35 -106 6 -56 -28 -147 -29
-184 -2 -30 23 -58 73 -67 121 l-5 33 192 2 192 3 3 55 c6 95 -41 181 -122
222 -61 32 -177 35 -236 8z m193 -100 c22 -17 47 -72 47 -102 0 -5 -58 -8
-130 -8 -145 0 -145 0 -114 66 21 45 56 63 120 64 37 0 59 -6 77 -20z"/>
<path d="M3480 1073 c0 -271 12 -305 113 -348 74 -31 183 -10 232 44 l19 22
16 -33 c14 -30 19 -33 68 -36 l52 -3 0 285 0 286 -70 0 -70 0 0 -209 0 -210
-32 -23 c-26 -18 -46 -23 -92 -23 -53 0 -61 3 -80 28 -19 26 -21 43 -24 233
l-4 204 -64 0 -64 0 0 -217z"/>
<path d="M4100 1005 l0 -285 65 0 65 0 0 285 0 285 -65 0 -65 0 0 -285z"/>
</g>
</svg>
